<svg width="18" height="17" viewBox="0 0 18 17" fill="none" xmlns="http://www.w3.org/2000/svg">
<path d="M17.125 8.8335C17.125 9.38037 16.6953 9.771 16.1875 9.771H9.9375V16.021C9.9375 16.5679 9.50781 16.9976 9 16.9976C8.45312 16.9976 8.0625 16.5679 8.0625 16.021V9.771H1.8125C1.26562 9.771 0.875 9.38037 0.875 8.87256C0.875 8.32568 1.26562 7.896 1.8125 7.896H8.0625V1.646C8.0625 1.13818 8.45312 0.747559 9 0.747559C9.50781 0.747559 9.9375 1.13818 9.9375 1.646V7.896H16.1875C16.6953 7.896 17.125 8.32568 17.125 8.8335Z" fill="#F3F3F3"/>
</svg>
