<svg width="19" height="17" viewBox="0 0 19 17" fill="none" xmlns="http://www.w3.org/2000/svg">
<path d="M0.25 1.78125C0.25 1.00781 0.847656 0.375 1.62109 0.375H16.8438C17.6172 0.375 18.25 1.00781 18.25 1.78125C18.25 2.09766 18.1094 2.41406 17.8984 2.66016L11.5 10.4297V14.9648C11.5 15.5977 10.9375 16.1602 10.3047 16.1602C10.0234 16.1602 9.77734 16.0547 9.56641 15.8789L7.42188 14.2266C7.14062 14.0156 6.96484 13.6992 6.96484 13.3477V10.4297L0.566406 2.66016C0.355469 2.41406 0.25 2.09766 0.25 1.78125ZM1.62109 1.5C1.48047 1.5 1.375 1.64062 1.375 1.78125C1.375 1.85156 1.375 1.88672 1.41016 1.95703L7.98438 9.86719C8.05469 9.97266 8.125 10.1133 8.125 10.2188V13.3477L10.2695 15C10.2695 15 10.2695 15 10.3047 15C10.3398 15 10.375 15 10.375 14.9648V10.2188C10.375 10.1133 10.4102 9.97266 10.4805 9.86719L17.0547 1.95703C17.0898 1.88672 17.125 1.85156 17.125 1.78125C17.125 1.64062 16.9844 1.5 16.8438 1.5H1.62109Z" fill="#2DAFCF"/>
</svg>
