<svg width="22" height="23" viewBox="0 0 22 23" fill="none" xmlns="http://www.w3.org/2000/svg">
<path d="M11 22.25C17.0586 22.25 22 17.3516 22 11.25C22 5.19141 17.0586 0.25 11 0.25C4.89844 0.25 0 5.19141 0 11.25C0 17.3516 4.89844 22.25 11 22.25ZM15.8555 9.23047L10.3555 14.7305C9.92578 15.1602 9.28125 15.1602 8.89453 14.7305L6.14453 11.9805C5.71484 11.5938 5.71484 10.9492 6.14453 10.5625C6.53125 10.1328 7.17578 10.1328 7.60547 10.5625L9.625 12.582L14.3945 7.76953C14.7812 7.38281 15.4258 7.38281 15.8125 7.76953C16.2422 8.19922 16.2422 8.84375 15.8125 9.23047H15.8555Z" fill="#10C9BE"/>
</svg>
