<svg width="12" height="13" viewBox="0 0 12 13" fill="none" xmlns="http://www.w3.org/2000/svg">
<path d="M6.375 3.35938C6.49219 3.38281 6.79688 3.45312 6.9375 3.47656C7.125 3.52344 7.24219 3.73438 7.19531 3.94531C7.14844 4.13281 6.9375 4.25 6.72656 4.20312C6.63281 4.17969 6.32812 4.10938 6.21094 4.08594C5.90625 4.03906 5.67188 4.08594 5.48438 4.15625C5.32031 4.25 5.25 4.34375 5.25 4.41406C5.22656 4.53125 5.25 4.57812 5.25 4.60156C5.27344 4.625 5.29688 4.67188 5.36719 4.71875C5.53125 4.83594 5.76562 4.90625 6.09375 5H6.11719C6.39844 5.09375 6.77344 5.21094 7.03125 5.39844C7.19531 5.51562 7.3125 5.65625 7.40625 5.84375C7.5 6.03125 7.5 6.24219 7.47656 6.47656C7.40625 6.875 7.125 7.15625 6.77344 7.32031C6.65625 7.36719 6.51562 7.41406 6.375 7.4375V7.625C6.375 7.83594 6.1875 8 6 8C5.78906 8 5.625 7.83594 5.625 7.625V7.41406C5.39062 7.36719 5.0625 7.25 4.85156 7.17969C4.80469 7.17969 4.78125 7.15625 4.73438 7.15625C4.54688 7.08594 4.45312 6.875 4.5 6.66406C4.57031 6.47656 4.78125 6.35938 4.99219 6.42969C5.01562 6.45312 5.08594 6.47656 5.13281 6.47656C5.34375 6.57031 5.60156 6.64062 5.76562 6.66406C6.07031 6.73438 6.32812 6.6875 6.49219 6.61719C6.63281 6.54688 6.70312 6.47656 6.72656 6.33594C6.75 6.24219 6.72656 6.17188 6.72656 6.14844C6.70312 6.10156 6.65625 6.05469 6.60938 6.00781C6.44531 5.89062 6.21094 5.82031 5.88281 5.72656L5.83594 5.70312C5.55469 5.60938 5.20312 5.51562 4.94531 5.32812C4.80469 5.23438 4.66406 5.09375 4.57031 4.92969C4.5 4.71875 4.47656 4.50781 4.5 4.29688C4.57031 3.89844 4.85156 3.64062 5.17969 3.47656C5.32031 3.42969 5.46094 3.38281 5.625 3.35938V3.125C5.625 2.9375 5.78906 2.75 6 2.75C6.1875 2.75 6.375 2.9375 6.375 3.125V3.35938ZM1.125 5.375C1.125 2.70312 3.30469 0.5 6 0.5C8.67188 0.5 10.875 2.70312 10.875 5.375C10.875 8.07031 8.67188 10.25 6 10.25C3.30469 10.25 1.125 8.07031 1.125 5.375ZM6 9.5C8.27344 9.5 10.125 7.67188 10.125 5.375C10.125 3.10156 8.27344 1.25 6 1.25C3.70312 1.25 1.875 3.10156 1.875 5.375C1.875 7.67188 3.70312 9.5 6 9.5ZM2.15625 9.5H1.3125C0.984375 9.5 0.75 9.75781 0.75 10.0625V11.1875C0.75 11.5156 0.984375 11.75 1.3125 11.75H10.6875C10.9922 11.75 11.25 11.5156 11.25 11.1875V10.0625C11.25 9.75781 10.9922 9.5 10.6875 9.5H9.82031C10.0547 9.28906 10.2891 9.03125 10.5 8.75H10.6875C11.3906 8.75 12 9.35938 12 10.0625V11.1875C12 11.9141 11.3906 12.5 10.6875 12.5H1.3125C0.585938 12.5 0 11.9141 0 11.1875V10.0625C0 9.35938 0.585938 8.75 1.3125 8.75H1.47656C1.6875 9.03125 1.92188 9.28906 2.15625 9.5Z" fill="#10C9BE"/>
</svg>
