<svg width="28" height="28" viewBox="0 0 28 28" fill="none" xmlns="http://www.w3.org/2000/svg">
<path d="M12.8333 4.66669H4.66665C4.04781 4.66669 3.45432 4.91252 3.01673 5.3501C2.57915 5.78769 2.33331 6.38118 2.33331 7.00002V23.3334C2.33331 23.9522 2.57915 24.5457 3.01673 24.9833C3.45432 25.4209 4.04781 25.6667 4.66665 25.6667H21C21.6188 25.6667 22.2123 25.4209 22.6499 24.9833C23.0875 24.5457 23.3333 23.9522 23.3333 23.3334V15.1667" stroke="#020618" stroke-width="2" stroke-linecap="round" stroke-linejoin="round"/>
<path d="M21.5833 2.91665C22.0474 2.45252 22.6769 2.19177 23.3333 2.19177C23.9897 2.19177 24.6192 2.45252 25.0833 2.91665C25.5474 3.38078 25.8082 4.01027 25.8082 4.66665C25.8082 5.32302 25.5474 5.95252 25.0833 6.41665L14 17.5L9.33331 18.6666L10.5 14L21.5833 2.91665Z" stroke="#020618" stroke-width="2" stroke-linecap="round" stroke-linejoin="round"/>
</svg>
