<svg width="31" height="30" viewBox="0 0 31 30" fill="none" xmlns="http://www.w3.org/2000/svg">
<path d="M3 11.25C3.99456 11.25 4.94839 11.6451 5.65165 12.3483C6.35491 13.0516 6.75 14.0054 6.75 15C6.75 15.9946 6.35491 16.9484 5.65165 17.6517C4.94839 18.3549 3.99456 18.75 3 18.75V21.25C3 21.913 3.26339 22.5489 3.73223 23.0178C4.20107 23.4866 4.83696 23.75 5.5 23.75H25.5C26.163 23.75 26.7989 23.4866 27.2678 23.0178C27.7366 22.5489 28 21.913 28 21.25V18.75C27.0054 18.75 26.0516 18.3549 25.3483 17.6517C24.6451 16.9484 24.25 15.9946 24.25 15C24.25 14.0054 24.6451 13.0516 25.3483 12.3483C26.0516 11.6451 27.0054 11.25 28 11.25V8.75C28 8.08696 27.7366 7.45107 27.2678 6.98223C26.7989 6.51339 26.163 6.25 25.5 6.25H5.5C4.83696 6.25 4.20107 6.51339 3.73223 6.98223C3.26339 7.45107 3 8.08696 3 8.75V11.25Z" stroke="#2DAFCF" stroke-width="2" stroke-linecap="round" stroke-linejoin="round"/>
<path d="M11.75 15L14.25 17.5L19.25 12.5" stroke="#2DAFCF" stroke-width="2" stroke-linecap="round" stroke-linejoin="round"/>
</svg>
