<svg width="80" height="80" viewBox="0 0 80 80" fill="none" xmlns="http://www.w3.org/2000/svg">
<path d="M52.5156 27.3438C51.0508 25.8789 48.6781 25.8789 47.2125 27.3438L40 34.7031L32.5156 27.3438C31.0508 25.8789 28.6781 25.8789 27.2125 27.3438C25.7469 28.8086 25.7477 31.1812 27.2125 32.6469L34.5609 39.9953L27.3438 47.3438C25.8789 48.8086 25.8789 51.1813 27.3438 52.6469C28.8083 54.1114 31.1812 54.1127 32.6469 52.6469L40 45.2969L47.3484 52.6453C48.813 54.1098 51.1859 54.1111 52.6516 52.6453C54.1164 51.1805 54.1164 48.8078 52.6516 47.3422L45.3031 39.9938L52.6516 32.6453C54.1094 31.1875 54.1094 28.8125 52.5156 27.3438ZM40 0C17.9062 0 0 17.9062 0 40C0 62.0938 17.9062 80 40 80C62.0938 80 80 62.0938 80 40C80 17.9062 62.0938 0 40 0ZM40 72.5C22.0781 72.5 7.5 57.9203 7.5 40C7.5 22.0797 22.0781 7.5 40 7.5C57.9219 7.5 72.5 22.0797 72.5 40C72.5 57.9203 57.9219 72.5 40 72.5Z" fill="#E13A3A"/>
</svg>
