<svg width="72" height="72" viewBox="0 0 72 72" fill="none" xmlns="http://www.w3.org/2000/svg">
<path d="M36 0C55.8984 0 72 16.1044 72 36C72 55.8984 55.8956 72 36 72C16.1016 72 0 55.8956 0 36C7.71843e-07 16.1016 16.1044 7.71864e-07 36 0ZM36 5.625C19.2108 5.625 5.625 19.2122 5.625 36C5.625 52.7892 19.2122 66.375 36 66.375C52.7892 66.375 66.375 52.7878 66.375 36C66.375 19.2108 52.7878 5.625 36 5.625ZM36.4678 30.4395C38.0252 30.4395 39.3428 31.728 39.3428 33.25V46.8799H41.2598C42.8172 46.8799 44.1348 48.1684 44.1348 49.6904C44.1346 51.3294 42.8171 52.5 41.2598 52.5H31.6758C29.9986 52.5 28.7999 51.3294 28.7998 49.6904C28.7998 48.1684 29.9985 46.8799 31.6758 46.8799H33.5928V36.0596H32.6338C30.9567 36.0595 29.7589 34.889 29.7588 33.25C29.7588 31.728 30.9567 30.4396 32.6338 30.4395H36.4678ZM36.4678 19.2002C38.5043 19.2002 40.3015 20.9561 40.3018 22.9463C40.3018 25.0537 38.5044 26.6933 36.4678 26.6934C34.3113 26.6934 32.6338 25.0537 32.6338 22.9463C32.634 20.9561 34.3115 19.2002 36.4678 19.2002Z" fill="#2DAFCF"/>
</svg>
