<svg width="62" height="81" viewBox="0 0 62 81" fill="none" xmlns="http://www.w3.org/2000/svg">
<path d="M41 0C46.7915 0 51.5 4.70017 51.5 10.5V18.0352C57.7038 23.6131 61.5 31.6192 61.5 40.5C61.5 49.3808 57.7038 57.3869 51.5 62.9648V70.5C51.5 76.2918 46.7918 81 41 81H21C15.2002 81 10.5 76.2915 10.5 70.5V63.083C4.35789 57.5013 0.5 49.4456 0.5 40.5C0.5 31.5544 4.35789 23.4987 10.5 17.917V10.5C10.5 4.70042 15.2004 0 21 0H41ZM45.5 67.3359C41.178 69.6673 36.1183 71 31 71C25.7482 71 20.8074 69.6674 16.5 67.3369V70.5C16.5 72.9895 18.5105 75 21 75H41C43.4895 75 45.5 72.9895 45.5 70.5V67.3359ZM31 16C17.4636 16 6.5 26.9636 6.5 40.5C6.5 54.0364 17.4636 65 31 65C44.5364 65 55.5 54.0364 55.5 40.5C55.5 26.9636 44.5364 16 31 16ZM31 25C32.6511 25 34 26.3489 34 28V38.8887L40.168 43.0059L40.1689 43.0068C41.5383 43.926 41.9122 45.782 40.9951 47.167L40.9932 47.1689C40.074 48.5383 38.218 48.9122 36.833 47.9951L29.332 42.9941L29.3281 42.9912C28.5074 42.4317 28 41.4976 28 40.5V28C28 26.3489 29.3489 25 31 25ZM21 6C18.5108 6 16.5 8.0149 16.5 10.5V13.6602C20.8078 11.325 25.7489 10 31 10C36.1177 10 41.1774 11.325 45.5 13.6611V10.5C45.5 8.0149 43.4892 6 41 6H21Z" fill="#EE9F27"/>
</svg>
