<svg width="31" height="30" viewBox="0 0 31 30" fill="none" xmlns="http://www.w3.org/2000/svg">
<g clip-path="url(#clip0_22_4276)">
<path d="M28.675 8.025C28.5265 7.43176 28.2241 6.88821 27.7983 6.44926C27.3725 6.0103 26.8384 5.69148 26.25 5.525C24.1 5 15.5 5 15.5 5C15.5 5 6.89998 5 4.74998 5.575C4.16154 5.74148 3.62745 6.0603 3.20167 6.49926C2.77588 6.93821 2.47347 7.48176 2.32498 8.075C1.9315 10.2569 1.73903 12.4704 1.74998 14.6875C1.73596 16.9213 1.92844 19.1516 2.32498 21.35C2.48868 21.9248 2.79787 22.4477 3.22266 22.8681C3.64746 23.2885 4.17351 23.5923 4.74998 23.75C6.89998 24.325 15.5 24.325 15.5 24.325C15.5 24.325 24.1 24.325 26.25 23.75C26.8384 23.5835 27.3725 23.2647 27.7983 22.8257C28.2241 22.3868 28.5265 21.8432 28.675 21.25C29.0654 19.0845 29.2579 16.8879 29.25 14.6875C29.264 12.4537 29.0715 10.2234 28.675 8.025Z" stroke="#2DAFCF" stroke-width="2" stroke-linecap="round" stroke-linejoin="round"/>
<path d="M12.6875 18.7751L19.875 14.6876L12.6875 10.6001V18.7751Z" stroke="#2DAFCF" stroke-width="2" stroke-linecap="round" stroke-linejoin="round"/>
</g>
<defs>
<clipPath id="clip0_22_4276">
<rect width="30" height="30" fill="white" transform="translate(0.5)"/>
</clipPath>
</defs>
</svg>
