<svg width="81" height="80" viewBox="0 0 81 80" fill="none" xmlns="http://www.w3.org/2000/svg">
<path d="M58.1813 27.3078C59.4016 28.5281 59.4016 30.5078 58.1813 31.7281L37.2172 52.6922C35.9969 53.9125 34.0187 53.9125 32.7969 52.6922L22.8172 42.7109C21.5969 41.4906 21.5969 39.5125 22.8172 38.2922C24.0375 37.0719 26.0156 37.0719 27.2359 38.2922L35.0062 46.0625L53.7609 27.3062C54.9828 26.0875 56.9625 26.0875 58.1813 27.3078ZM80.5 40C80.5 62.1094 62.6063 80 40.5 80C18.3906 80 0.5 62.1063 0.5 40C0.5 17.8906 18.3938 0 40.5 0C62.6094 0 80.5 17.8938 80.5 40ZM74.25 40C74.25 21.3453 59.1531 6.25 40.5 6.25C21.8453 6.25 6.75 21.3469 6.75 40C6.75 58.6547 21.8469 73.75 40.5 73.75C59.1547 73.75 74.25 58.6531 74.25 40Z" fill="#3CE725"/>
</svg>
