<svg width="21" height="20" viewBox="0 0 21 20" fill="none" xmlns="http://www.w3.org/2000/svg">
<path d="M2.16669 7.5C2.82973 7.5 3.46561 7.76339 3.93445 8.23223C4.40329 8.70107 4.66669 9.33696 4.66669 10C4.66669 10.663 4.40329 11.2989 3.93445 11.7678C3.46561 12.2366 2.82973 12.5 2.16669 12.5V14.1667C2.16669 14.6087 2.34228 15.0326 2.65484 15.3452C2.9674 15.6577 3.39133 15.8333 3.83335 15.8333H17.1667C17.6087 15.8333 18.0326 15.6577 18.3452 15.3452C18.6578 15.0326 18.8334 14.6087 18.8334 14.1667V12.5C18.1703 12.5 17.5344 12.2366 17.0656 11.7678C16.5967 11.2989 16.3334 10.663 16.3334 10C16.3334 9.33696 16.5967 8.70107 17.0656 8.23223C17.5344 7.76339 18.1703 7.5 18.8334 7.5V5.83333C18.8334 5.39131 18.6578 4.96738 18.3452 4.65482C18.0326 4.34226 17.6087 4.16667 17.1667 4.16667H3.83335C3.39133 4.16667 2.9674 4.34226 2.65484 4.65482C2.34228 4.96738 2.16669 5.39131 2.16669 5.83333V7.5Z" stroke="#2DAFCF" stroke-linecap="round" stroke-linejoin="round"/>
<path d="M8 10L9.66667 11.6667L13 8.33333" stroke="#2DAFCF" stroke-linecap="round" stroke-linejoin="round"/>
</svg>
