<svg width="12" height="13" viewBox="0 0 12 13" fill="none" xmlns="http://www.w3.org/2000/svg">
<path d="M3 3.5C3.82031 3.5 4.5 2.84375 4.5 2C4.5 1.17969 3.82031 0.5 3 0.5C2.15625 0.5 1.5 1.17969 1.5 2C1.5 2.84375 2.15625 3.5 3 3.5ZM3 1.25C3.39844 1.25 3.75 1.60156 3.75 2C3.75 2.42188 3.39844 2.75 3 2.75C2.57812 2.75 2.25 2.42188 2.25 2C2.25 1.60156 2.57812 1.25 3 1.25ZM3.75 4.25H2.25C1.40625 4.25 0.75 4.92969 0.75 5.75V8C0.75 8.42188 1.07812 8.75 1.5 8.75V12.125C1.5 12.3359 1.66406 12.5 1.875 12.5C2.0625 12.5 2.25 12.3359 2.25 12.125V8.75H3.75V12.125C3.75 12.3359 3.91406 12.5 4.125 12.5C4.3125 12.5 4.5 12.3359 4.5 12.125V8.75C4.89844 8.75 5.25 8.42188 5.25 8V5.75C5.25 4.92969 4.57031 4.25 3.75 4.25ZM4.5 8H1.5V5.75C1.5 5.35156 1.82812 5 2.25 5H3.75C4.14844 5 4.5 5.35156 4.5 5.75V8ZM9.75 4.25H8.25C7.40625 4.25 6.75 4.92969 6.75 5.75V8C6.75 8.42188 7.07812 8.75 7.5 8.75V12.125C7.5 12.3359 7.66406 12.5 7.875 12.5C8.0625 12.5 8.25 12.3359 8.25 12.125V8.75H9.75V12.125C9.75 12.3359 9.91406 12.5 10.125 12.5C10.3125 12.5 10.5 12.3359 10.5 12.125V8.75C10.8984 8.75 11.25 8.42188 11.25 8V5.75C11.25 4.92969 10.5703 4.25 9.75 4.25ZM10.5 8H7.5V5.75C7.5 5.35156 7.82812 5 8.25 5H9.75C10.1484 5 10.5 5.35156 10.5 5.75V8ZM9 3.5C9.82031 3.5 10.5 2.84375 10.5 2C10.5 1.17969 9.82031 0.5 9 0.5C8.15625 0.5 7.5 1.17969 7.5 2C7.5 2.84375 8.15625 3.5 9 3.5ZM9 1.25C9.39844 1.25 9.75 1.60156 9.75 2C9.75 2.42188 9.39844 2.75 9 2.75C8.57812 2.75 8.25 2.42188 8.25 2C8.25 1.60156 8.57812 1.25 9 1.25Z" fill="#10C9BE"/>
</svg>
