<svg width="74" height="64" viewBox="0 0 74 64" fill="none" xmlns="http://www.w3.org/2000/svg">
<path d="M37 46.625C35.0312 46.625 33.625 48.1719 33.625 50C33.625 51.9688 35.1719 53.375 37 53.375C38.8281 53.375 40.2344 51.9688 40.2344 50C40.375 48.1719 38.8281 46.625 37 46.625ZM37 41C38.125 41 39.1094 40.0156 39.1094 38.75V18.5C39.1094 17.375 37.9844 16.25 37 16.25C35.875 16.25 34.75 17.375 34.75 18.5V38.75C34.75 40.0156 35.7344 41 37 41ZM71.875 51.9688L43.75 4.4375C42.3438 2.04688 39.8125 0.640625 37 0.5C34.0469 0.5 31.5156 2.04688 30.1094 4.4375L1.98438 51.9688C0.578125 54.3594 0.578125 57.1719 1.98438 59.5625C3.39062 62.0938 5.92188 63.5 8.875 63.5H65.125C67.9375 63.5 70.4688 62.0938 71.875 59.5625C73.2812 57.1719 73.2812 54.3594 71.875 51.9688ZM67.9375 57.3125C67.375 58.4375 66.25 59 64.9844 59H8.875C7.60938 59 6.48438 58.4375 5.92188 57.3125C5.21875 56.3281 5.35938 55.2031 5.92188 54.2188L34.0469 6.6875C34.6094 5.70312 35.7344 5 37 5C36.8594 5 37 5 37 5C38.125 5.14062 39.25 5.70312 39.8125 6.6875L67.9375 54.2188C68.5 55.2031 68.6406 56.3281 67.9375 57.3125Z" fill="#F0B100"/>
</svg>
