<svg xmlns="http://www.w3.org/2000/svg" viewBox="0 0 482.2 118.4" xml:space="preserve" width="80" height="40"><path d="M420.3 118.4 380.9 59.2l39.4-59.2h-31L355 50.1l-34.3-50.1h-31l39.4 59.2-39.4 59.2h31L355 68.3l34.3 50.1zM280.6 83.2c0-12.7 8.3-21.1 21.1-21.1 9.4 0 14.8 4.2 18.2 10.1l-24.8 14.6c-1.3-2.1-3.2-3.3-5.6-3.3-3.6 0-6.2 2.3-6.2 5.9 0 3.3 2.1 5.4 6.7 7.4l11.1 4.7c10.4 4.4 17.2 9.2 17.2 21.1 0 12.3-9.5 20.3-22.9 20.3-13.8 0-22.4-8-25.1-15.6l25.3-13.3c1.4 3 4.2 4.7 7.2 4.7 4 0 6.6-2.4 6.6-5.8s-2.1-5-7.3-7.3l-10.6-4.6c-10-4.3-16.8-9.3-16.8-21.1zM189.9 61.1h41.6v23.3h30.8V61.1h15.9V37.7h-15.9V23.3h-30.8v14.4h-41.6v23.4zM161.4 89.2c-15.4 0-26.2-11.4-26.2-26.8s10.8-26.8 26.2-26.8c8.3 0 14.6 3.2 18.8 8.1l-20.1 18.7 20.1 18.7c-4.2 4.9-10.5 8.1-18.8 8.1zm-2.8-45.7c-8.9 0-14.9 6.7-14.9 18.9s6.1 18.9 14.9 18.9c3.9 0 7-1.4 8.9-3.9l-13-15 13-15c-1.9-2.5-5-3.9-8.9-3.9zM0 115.4V2h30.8v84.9h52.8v28.5H0z" fill="#009ee3"/></svg>