<svg xmlns="http://www.w3.org/2000/svg" viewBox="0 0 60 25" width="80" height="40"><path d="M53.3 2.2C52.7.9 51.1.2 49.6.2c-2.3 0-4.4 1.2-5.9 3.2-1.9 2.5-2.7 5.5-2.7 8.8s.8 6.3 2.7 8.7c1.5 2 3.6 3.2 5.9 3.2 1.5 0 3.1-.7 3.7-2 .5-1.1.5-2.5.1-3.7l-4.1-11.9c-.3-.9-.6-2.1-.6-2.1h-.1c-.1.2-.4 1.3-.6 2.1l-2.1 6.1c-.8 2.5.3 4.4 2.2 4.4.7 0 1.3-.2 1.9-.5.6-.4.9-1 .8-1.7-.1-.9-.7-2.6-1.5-4.8l4.1-11.9c.3-.8.6-2 .6-2h.1c.1.2.4 1.2.6 2l4.1 11.9c.5 1.2.5 2.6.1 3.7zM34.8 13.3c0-3.9-1.9-5.9-5.3-5.9-2.8 0-4.9 1.8-4.9 4.3 0 2.2 1.5 3.7 4.3 4.2l-5.9 8.1H29l6-8.3h-.2zM30 9.2c.1-1.1 1-1.8 2-1.8 1.1 0 1.9.8 1.9 1.9 0 1-.7 1.7-2 1.8l-1.9-.1v-.1zM18 24h5.2l-7.9-22.9h-5l8 22.9zM.2 24h5.2L0 1.1h5l10.3 22.9h-5L10 17.4l-4.8 6.6H.2z" fill="#635bff"/></svg>