<svg width="145" height="37" viewBox="0 0 145 37" fill="none" xmlns="http://www.w3.org/2000/svg">
<g clip-path="url(#clip0_287_6871)">
<path d="M18.9898 0C18.9898 2.04549 17.3365 3.70974 15.291 3.70974C13.2455 3.70974 11.5923 2.04549 11.5923 0H0.320068V36.4119H28.1761V0H18.9934H18.9898ZM13.2785 20.2936C12.1971 20.3706 11.1267 20.5649 10.0856 20.8545C9.5541 19.6008 8.80996 18.4754 7.84586 17.5333C9.46979 16.5912 11.3173 15.9864 13.2748 15.8251V20.2936H13.2785ZM15.5843 15.8251C17.5418 15.9864 19.36 16.5949 20.9729 17.5113C20.0088 18.4534 19.2537 19.6008 18.7332 20.8545C17.7067 20.5392 16.6547 20.3669 15.5843 20.2936V15.8251ZM1.84502 25.1287C2.57084 22.6727 4.01881 20.5209 5.92134 18.897C6.78646 19.6668 7.47929 20.6162 7.93384 21.6866H7.92284C5.45579 22.812 3.38097 24.5642 1.84502 26.716V25.1251V25.1287ZM1.84502 31.9104C2.84944 28.4609 5.2615 25.5943 8.49837 23.9594C8.50936 24.1976 8.53136 24.4249 8.53136 24.6522C8.53136 28.5452 5.60975 31.7711 1.84502 32.244V31.9104ZM1.84502 34.5827C2.0723 34.5497 2.28858 34.5167 2.53785 34.4728C7.23368 33.6736 10.8335 29.5716 10.8335 24.6522C10.8335 24.1317 10.7895 23.5928 10.7161 23.0833C11.5593 22.823 12.4024 22.6727 13.2785 22.5957V34.5827H1.84502ZM15.5843 34.5827V22.5957C16.4384 22.6727 17.2815 22.812 18.1063 23.0503V23.0723C18.0183 23.5818 17.967 24.1207 17.967 24.6522C17.967 29.5973 21.6034 33.7176 26.3396 34.4837C26.5559 34.5277 26.7831 34.5607 27.0214 34.5827H15.5879H15.5843ZM27.0178 32.2586C23.209 31.7931 20.2691 28.5599 20.2691 24.6559C20.2691 24.4176 20.2801 24.1793 20.3131 23.941C21.937 24.7512 23.352 25.8656 24.4994 27.2182C25.6468 28.5709 26.5009 30.1618 27.0214 31.9031V32.2586H27.0178ZM27.0178 26.7087C25.4708 24.5459 23.3813 22.8047 20.8959 21.6573C21.3395 20.5759 22.0323 19.6228 22.9194 18.8786C24.822 20.5026 26.2846 22.6654 27.0178 25.1214V26.7124V26.7087Z" fill="white"/>
<path d="M38.1289 27.0748V8.77539H42.8944C43.6789 8.77539 44.4193 8.83404 45.1195 8.95501C45.8197 9.07598 46.4428 9.30692 46.9817 9.64417C47.5242 9.98509 47.9495 10.4653 48.2574 11.0921C48.5653 11.719 48.7193 12.5401 48.7193 13.5665C48.7193 14.3033 48.6093 14.9265 48.393 15.4287C48.1767 15.9346 47.8651 16.3378 47.4692 16.6384C47.0697 16.939 46.5931 17.1443 46.0359 17.2469C46.7434 17.3386 47.3373 17.5659 47.8212 17.9361C48.305 18.3064 48.668 18.7976 48.9172 19.4171C49.1665 20.0366 49.2911 20.7807 49.2911 21.6532C49.2911 22.6026 49.1665 23.4201 48.9172 24.1056C48.668 24.7911 48.3124 25.3519 47.8432 25.7882C47.3739 26.2244 46.8021 26.547 46.1166 26.7596C45.4311 26.9722 44.643 27.0748 43.7558 27.0748H38.1289ZM42.1722 16.0959H42.964C43.5835 16.0959 44.0491 16.0006 44.3644 15.8136C44.6796 15.6267 44.8959 15.3518 45.0095 14.9888C45.1232 14.6259 45.1782 14.1897 45.1782 13.6802C45.1782 13.2 45.0902 12.7967 44.9179 12.4705C44.7456 12.1442 44.489 11.9023 44.1481 11.7373C43.8072 11.5724 43.3819 11.488 42.8724 11.488H42.1722V16.0959ZM42.1722 24.2485H43.03C43.9171 24.2485 44.533 24.0213 44.8702 23.5704C45.2111 23.1195 45.3798 22.456 45.3798 21.5835C45.3798 20.8907 45.3028 20.3408 45.1525 19.9339C45.0022 19.527 44.7529 19.2301 44.4083 19.0395C44.0601 18.8525 43.5945 18.7572 43.008 18.7572H42.1722V24.2449V24.2485Z" fill="white"/>
<path d="M50.4829 27.0748L53.9397 8.77539H58.5476L61.9604 27.0748H58.2323L57.6238 23.2111H54.9368L54.3026 27.0748H50.4866H50.4829ZM55.296 20.7917H57.2389L56.2675 13.6545L55.296 20.7917Z" fill="white"/>
<path d="M68.4886 27.3473C67.3449 27.3473 66.3882 27.142 65.6184 26.7351C64.8485 26.3282 64.2694 25.7014 63.8771 24.8473C63.4849 23.9968 63.2686 22.8934 63.2209 21.5371L66.6778 21.0166C66.6924 21.801 66.7657 22.4316 66.8904 22.9154C67.015 23.3993 67.1983 23.7439 67.4329 23.9565C67.6675 24.1691 67.9498 24.2718 68.2797 24.2718C68.7013 24.2718 68.9762 24.1288 69.1045 23.8429C69.2328 23.5569 69.2951 23.2563 69.2951 22.9411C69.2951 22.1896 69.1155 21.5518 68.7526 21.0312C68.3897 20.5107 67.9021 19.9902 67.2826 19.4623L65.7027 18.084C65.0098 17.4974 64.427 16.8303 63.9504 16.0861C63.4776 15.342 63.2393 14.4182 63.2393 13.3185C63.2393 11.7679 63.6975 10.5802 64.6176 9.75904C65.534 8.93791 66.7877 8.52734 68.3677 8.52734C69.3464 8.52734 70.1346 8.6923 70.7284 9.02589C71.3223 9.3558 71.7732 9.79203 72.0847 10.3236C72.3927 10.8588 72.6016 11.4233 72.7153 12.0171C72.8289 12.611 72.8912 13.1792 72.9059 13.7217L69.4271 14.1506C69.4124 13.6081 69.3758 13.1389 69.3244 12.7393C69.2731 12.3397 69.1631 12.0318 68.9982 11.8119C68.8332 11.5919 68.5766 11.4856 68.2284 11.4856C67.8508 11.4856 67.5759 11.6432 67.4036 11.9585C67.2313 12.2737 67.1433 12.5927 67.1433 12.9079C67.1433 13.5861 67.3046 14.1396 67.6308 14.5685C67.9534 14.9974 68.3787 15.4446 68.9065 15.9138L70.4205 17.2482C71.2196 17.9263 71.8905 18.6961 72.444 19.5539C72.9938 20.4117 73.2688 21.4748 73.2688 22.7395C73.2688 23.5973 73.0745 24.3781 72.6823 25.0782C72.29 25.7784 71.7365 26.3319 71.0217 26.7388C70.3069 27.1457 69.4601 27.351 68.4813 27.351L68.4886 27.3473Z" fill="white"/>
<path d="M84.6177 30.6648C84.2878 30.5145 83.8882 30.2689 83.419 29.9317C82.9535 29.5944 82.4879 29.1949 82.0297 28.733C81.5715 28.2711 81.1829 27.8019 80.8677 27.3217C80.809 27.3363 80.7467 27.3437 80.688 27.3437H80.4827C79.1118 27.3437 78.0267 27.1017 77.2312 26.6215C76.4321 26.1376 75.8602 25.4485 75.5157 24.543C75.1674 23.6376 74.9951 22.5635 74.9951 21.3135V14.5135C74.9951 13.2488 75.1674 12.1711 75.5157 11.284C75.8602 10.3969 76.4321 9.71505 77.2312 9.2385C78.0304 8.76195 79.1154 8.52734 80.4827 8.52734C81.8501 8.52734 82.9645 8.76562 83.7709 9.2385C84.5774 9.71138 85.1529 10.3932 85.4975 11.284C85.8457 12.1711 86.018 13.2488 86.018 14.5135V21.3135C86.018 22.1713 85.9374 22.9484 85.7798 23.6412C85.6221 24.3341 85.3655 24.9389 85.01 25.4485C84.6544 25.958 84.1852 26.3649 83.5986 26.6692C83.7966 26.8818 83.9982 27.0871 84.2108 27.2887C84.4198 27.4903 84.6324 27.6809 84.845 27.8532C85.0539 28.0255 85.2666 28.1648 85.4755 28.2711L84.6177 30.6648ZM80.4827 24.477C80.9043 24.477 81.2122 24.3707 81.4102 24.1618C81.6045 23.9528 81.7328 23.6816 81.7951 23.348C81.8537 23.0181 81.8831 22.6772 81.8831 22.3326V13.5238C81.8831 13.1609 81.8537 12.8199 81.7951 12.4974C81.7364 12.1748 81.6045 11.9072 81.4102 11.6946C81.2159 11.4856 80.9043 11.3793 80.4827 11.3793C80.0612 11.3793 79.7569 11.4856 79.5663 11.6946C79.3794 11.9072 79.2584 12.1748 79.2034 12.4974C79.1521 12.8199 79.1228 13.1645 79.1228 13.5238V22.3326C79.1228 22.6808 79.1484 23.0181 79.2034 23.348C79.2547 23.6779 79.3757 23.9528 79.5663 24.1618C79.7533 24.3744 80.0612 24.477 80.4827 24.477Z" fill="white"/>
<path d="M93.7674 27.3461C92.367 27.3461 91.271 27.1152 90.4792 26.6569C89.6874 26.1951 89.1338 25.5279 88.8186 24.6444C88.5033 23.7647 88.3457 22.6833 88.3457 21.4039V8.77539H92.345V22.0124C92.345 22.39 92.3744 22.7639 92.433 23.1415C92.4917 23.5191 92.6236 23.827 92.8289 24.0689C93.0305 24.3109 93.3458 24.4318 93.7674 24.4318C94.1889 24.4318 94.5188 24.3109 94.7168 24.0689C94.9147 23.827 95.0357 23.5191 95.0907 23.1415C95.1457 22.7639 95.1713 22.39 95.1713 22.0124V8.77539H99.1927V21.4039C99.1927 22.6833 99.0314 23.7647 98.7088 24.6444C98.3862 25.5242 97.8327 26.1951 97.0482 26.6569C96.2637 27.1152 95.1713 27.3461 93.771 27.3461H93.7674Z" fill="white"/>
<path d="M101.762 27.0748V8.77539H109.984V11.532H105.806V16.0739H108.991V18.8745H105.806V24.3402H110.028V27.0748H101.759H101.762Z" fill="white"/>
<path d="M113.511 27.0748V11.7813H110.754V8.77539H120.311V11.7813H117.576V27.0748H113.511Z" fill="white"/>
<path d="M121.598 27.0745V23.5957H125.077V27.0745H121.598Z" fill="white"/>
<path d="M127.449 27.0748V8.77539H131.492V27.0748H127.449Z" fill="white"/>
<path d="M134.223 27.0748V8.77539H138.853C140.447 8.77539 141.69 8.97334 142.581 9.37291C143.468 9.77248 144.095 10.3993 144.457 11.2498C144.82 12.1002 145 13.2036 145 14.56V21.2023C145 22.5733 144.817 23.6913 144.457 24.5565C144.095 25.4216 143.475 26.0594 142.595 26.4663C141.715 26.8732 140.484 27.0748 138.904 27.0748H134.226H134.223ZM138.27 24.2742H138.904C139.52 24.2742 139.967 24.1826 140.234 24.0029C140.506 23.8233 140.674 23.552 140.744 23.1891C140.81 22.8262 140.847 22.3753 140.847 21.8328V13.8598C140.847 13.3173 140.803 12.881 140.722 12.5511C140.641 12.2212 140.462 11.9793 140.191 11.829C139.919 11.6787 139.483 11.6017 138.878 11.6017H138.27V24.2742Z" fill="white"/>
<path d="M13.3658 14.6152C13.3328 14.6152 13.3108 14.6152 13.2778 14.6262V14.6152H13.3658Z" fill="white"/>
<path d="M15.5885 14.6152V14.6262C15.5555 14.6152 15.5225 14.6152 15.4895 14.6152H15.5885Z" fill="white"/>
<path d="M1.7427 32.252C1.7317 32.2739 1.7317 32.2849 1.7317 32.3069C1.7207 32.2849 1.7207 32.2739 1.7207 32.2629C1.7207 32.2629 1.72803 32.2593 1.7427 32.252Z" fill="white"/>
<path d="M27.1313 32.3062C27.1313 32.3062 27.1204 32.2844 27.1204 32.2734H27.1313V32.3062Z" fill="white"/>
<path d="M13.2778 14.6152V14.6372C13.2778 14.6372 13.2998 14.6262 13.3108 14.6262C13.3328 14.6152 13.3438 14.6152 13.3658 14.6152H13.2778ZM15.5176 14.6152C15.5176 14.6152 15.5396 14.6152 15.5506 14.6262C15.5616 14.6262 15.5726 14.6262 15.5836 14.6372V14.6152H15.5176Z" fill="white"/>
<path d="M27.1313 32.3062C27.1313 32.3062 27.1204 32.2844 27.1204 32.2734H27.1313V32.3062Z" fill="white"/>
<path d="M1.7317 32.3069C1.7207 32.2849 1.7207 32.2739 1.7207 32.2629C1.7207 32.2629 1.72803 32.2593 1.7427 32.252C1.7317 32.2739 1.7317 32.2849 1.7317 32.3069Z" fill="white"/>
<path d="M27.1313 32.3062C27.1313 32.3062 27.1204 32.2844 27.1204 32.2734H27.1313V32.3062Z" fill="white"/>
<path d="M1.7427 32.252C1.7317 32.2739 1.7317 32.2849 1.7317 32.3069C1.7207 32.2849 1.7207 32.2739 1.7207 32.2629C1.7207 32.2629 1.72803 32.2593 1.7427 32.252Z" fill="white"/>
<path d="M18.9902 0C18.9902 2.04549 17.3369 3.70974 15.2914 3.70974C13.246 3.70974 11.5927 2.04549 11.5927 0H1.84546V25.1287C2.57128 22.6727 4.01925 20.5209 5.92178 18.897C6.7869 19.6668 7.47972 20.6162 7.93428 21.6866H7.92328C5.45623 22.812 3.38141 24.5642 1.84546 26.716V31.9067C2.84988 28.4573 5.26194 25.5906 8.4988 23.9557C8.5098 24.194 8.5318 24.4213 8.5318 24.6485C8.5318 28.5416 5.61019 31.7674 1.84546 32.2403V34.5754C2.07274 34.5424 2.28902 34.5094 2.53829 34.4654C7.23412 33.6663 10.8339 29.5643 10.8339 24.6449C10.8339 24.1243 10.7899 23.5855 10.7166 23.0759C11.5597 22.8157 12.4028 22.6654 13.2789 22.5884V34.5754H15.5847V22.5884C16.4388 22.6654 17.282 22.8047 18.1067 23.0429V23.0649C18.0188 23.5745 17.9674 24.1133 17.9674 24.6449C17.9674 29.59 21.6039 33.7103 26.34 34.4764C26.5563 34.5204 26.7836 34.5534 27.0219 34.5754V32.2513C23.2131 31.7858 20.2732 28.5526 20.2732 24.6485C20.2732 24.4103 20.2842 24.172 20.3172 23.9337C21.9411 24.7438 23.3561 25.8582 24.5035 27.2109C25.6509 28.5636 26.505 30.1545 27.0255 31.8957V26.705C25.4786 24.5422 23.3891 22.801 20.9037 21.6536C21.3473 20.5722 22.0401 19.6191 22.9272 18.875C24.8297 20.4989 26.2924 22.6617 27.0255 25.1177V0H18.9975H18.9902ZM13.2789 20.2936C12.1975 20.3706 11.1271 20.5649 10.0861 20.8545C9.55454 19.6008 8.81039 18.4754 7.8463 17.5333C9.47023 16.5912 11.3178 15.9864 13.2753 15.8251V20.2936H13.2789ZM13.3119 14.6264C13.3119 14.6264 13.2899 14.6264 13.2789 14.6374V14.6154H13.3669C13.3449 14.6154 13.3339 14.6154 13.3119 14.6264ZM15.5517 14.6264C15.5517 14.6264 15.5297 14.6154 15.5187 14.6154H15.5847V14.6374C15.5847 14.6374 15.5627 14.6264 15.5517 14.6264ZM18.7299 20.8545C17.7035 20.5392 16.6514 20.3669 15.581 20.2936V15.8251C17.5386 15.9864 19.3568 16.5949 20.9697 17.5113C20.0056 18.4534 19.2505 19.6008 18.7299 20.8545Z" fill="white"/>
<path d="M13.3658 14.6152C13.3328 14.6152 13.3108 14.6152 13.2778 14.6262V14.6152H13.3658Z" fill="white"/>
<path d="M15.5885 14.6152V14.6262C15.5555 14.6152 15.5225 14.6152 15.4895 14.6152H15.5885Z" fill="white"/>
<path d="M22.9162 18.8755C24.8187 20.4995 26.2814 22.6623 27.0145 25.1183V8.52344H1.84546V25.1293C2.57128 22.6733 4.01925 20.5215 5.92178 18.8975C6.7869 19.6673 7.47972 20.6168 7.93428 21.6872H7.92328C5.45623 22.8125 3.38141 24.5648 1.84546 26.7166V31.9073C2.84988 28.4578 5.26194 25.5912 8.4988 23.9563C8.5098 24.1945 8.5318 24.4218 8.5318 24.6491C8.5318 28.5421 5.61019 31.768 1.84546 32.2409V34.576C2.07274 34.543 2.28902 34.51 2.53829 34.466C7.23412 33.6668 10.8339 29.5649 10.8339 24.6454C10.8339 24.1249 10.7899 23.586 10.7166 23.0765C11.5597 22.8162 12.4028 22.6659 13.2789 22.5889V34.576H15.5847V22.5889C16.4388 22.6659 17.282 22.8052 18.1067 23.0435V23.0655C18.0188 23.575 17.9674 24.1139 17.9674 24.6454C17.9674 29.5905 21.6039 33.7108 26.34 34.477C26.5563 34.521 26.7836 34.554 27.0219 34.576V32.2519C23.2131 31.7863 20.2732 28.5531 20.2732 24.6491C20.2732 24.4108 20.2842 24.1725 20.3172 23.9343C21.9411 24.7444 23.3561 25.8588 24.5035 27.2115C25.6509 28.5641 26.505 30.1551 27.0255 31.8963V26.7056C25.4786 24.5428 23.3891 22.8016 20.9037 21.6542C21.3473 20.5728 22.0401 19.6197 22.9272 18.8755H22.9162ZM13.2789 20.2942C12.1975 20.3712 11.1271 20.5654 10.0861 20.855C9.55454 19.6013 8.81039 18.476 7.8463 17.5339C9.47023 16.5918 11.3178 15.9869 13.2753 15.8256V20.2942H13.2789ZM18.7299 20.855C17.7035 20.5398 16.6514 20.3675 15.581 20.2942V15.8256C17.5386 15.9869 19.3568 16.5954 20.9697 17.5119C20.0056 18.454 19.2505 19.6013 18.7299 20.855Z" fill="white"/>
</g>
<defs>
<clipPath id="clip0_287_6871">
<rect width="144.68" height="36.4119" fill="white" transform="translate(0.320312)"/>
</clipPath>
</defs>
</svg>
