<svg width="139" height="36" viewBox="0 0 139 36" fill="none" xmlns="http://www.w3.org/2000/svg">
<g clip-path="url(#clip0_17_3828)">
<mask id="mask0_17_3828" style="mask-type:luminance" maskUnits="userSpaceOnUse" x="0" y="0" width="139" height="36">
<path d="M138.5 0.5H0.5V35.0199H138.5V0.5Z" fill="white"/>
</mask>
<g mask="url(#mask0_17_3828)">
<path d="M18.3077 0.5C18.3077 2.43921 16.7308 4.01698 14.7798 4.01698C12.8286 4.01698 11.2517 2.43921 11.2517 0.5H0.5V35.0199H27.0699V0.5H18.3112H18.3077ZM12.8601 19.7391C11.8287 19.8121 10.8076 19.9963 9.81469 20.2708C9.30769 19.0823 8.59791 18.0154 7.67832 17.1223C9.22727 16.2291 10.9895 15.6557 12.8566 15.5028V19.7391H12.8601ZM15.0595 15.5028C16.9266 15.6557 18.6608 16.2326 20.1993 17.1014C19.2797 17.9945 18.5594 19.0823 18.0629 20.2708C17.0839 19.972 16.0804 19.8086 15.0595 19.7391V15.5028ZM1.95455 24.323C2.64685 21.9945 4.02797 19.9546 5.84266 18.4151C6.66783 19.1449 7.32867 20.0449 7.76224 21.0598H7.75175C5.3986 22.1266 3.41958 23.7879 1.95455 25.8278V24.3196V24.323ZM1.95455 30.7523C2.91258 27.4821 5.21329 24.7644 8.3007 23.2144C8.31119 23.4403 8.33217 23.6557 8.33217 23.8712C8.33217 27.562 5.54545 30.6202 1.95455 31.0685V30.7523ZM1.95455 33.2857C2.17133 33.2545 2.37762 33.2232 2.61539 33.1815C7.0944 32.4239 10.5279 28.535 10.5279 23.8712C10.5279 23.3777 10.4861 22.8669 10.4161 22.3838C11.2203 22.1371 12.0244 21.9945 12.8601 21.9216V33.2857H1.95455ZM15.0595 33.2857V21.9216C15.8742 21.9945 16.6784 22.1266 17.4651 22.3525V22.3734C17.3811 22.8565 17.3322 23.3673 17.3322 23.8712C17.3322 28.5594 20.8007 32.4656 25.3182 33.1919C25.5244 33.2336 25.7412 33.2649 25.9685 33.2857H15.0629H15.0595ZM25.965 31.0824C22.3322 30.6411 19.528 27.5759 19.528 23.8747C19.528 23.6488 19.5385 23.4229 19.5699 23.197C21.1189 23.965 22.4686 25.0216 23.5629 26.3039C24.6573 27.5863 25.472 29.0945 25.9685 30.7453V31.0824H25.965ZM25.965 25.8209C24.4895 23.7705 22.4965 22.1197 20.1259 21.0319C20.5489 20.0067 21.2098 19.1032 22.056 18.3977C23.8706 19.9372 25.2658 21.9876 25.965 24.3161V25.8243V25.8209Z" fill="#2DAFCF"/>
<path d="M36.5633 26.1683V8.81976H41.1087C41.857 8.81976 42.5632 8.87537 43.2311 8.99005C43.8989 9.10473 44.4933 9.32368 45.0074 9.6434C45.5248 9.96656 45.9304 10.4218 46.2241 11.0161C46.5178 11.6104 46.6647 12.3888 46.6647 13.3619C46.6647 14.0605 46.5598 14.6513 46.3535 15.1274C46.1472 15.607 45.85 15.9892 45.4724 16.2742C45.0912 16.5592 44.6367 16.7538 44.1052 16.8512C44.7801 16.938 45.3465 17.1535 45.8081 17.5044C46.2695 17.8555 46.6157 18.3212 46.8535 18.9085C47.0913 19.4958 47.2101 20.2013 47.2101 21.0284C47.2101 21.9285 47.0913 22.7034 46.8535 23.3534C46.6157 24.0033 46.2766 24.535 45.829 24.9485C45.3815 25.3621 44.836 25.6679 44.1821 25.8694C43.5283 26.071 42.7765 26.1683 41.9304 26.1683H36.5633ZM40.4199 15.7599H41.1752C41.7661 15.7599 42.2102 15.6695 42.5108 15.4923C42.8116 15.315 43.0178 15.0544 43.1262 14.7104C43.2346 14.3663 43.287 13.9528 43.287 13.4697C43.287 13.0144 43.2031 12.6321 43.0388 12.3228C42.8745 12.0135 42.6297 11.7842 42.3046 11.6277C41.9794 11.4714 41.5737 11.3914 41.0878 11.3914H40.4199V15.7599ZM40.4199 23.4889H41.2381C42.0842 23.4889 42.6716 23.2735 42.9933 22.846C43.3185 22.4185 43.4794 21.7895 43.4794 20.9623C43.4794 20.3056 43.4059 19.7843 43.2626 19.3985C43.1192 19.0127 42.8814 18.7312 42.5528 18.5505C42.2206 18.3733 41.7766 18.2829 41.2171 18.2829H40.4199V23.4855V23.4889Z" fill="#2DAFCF"/>
<path d="M48.3464 26.1683L51.6437 8.81976H56.0387L59.294 26.1683H55.7381L55.1576 22.5054H52.5947L51.9898 26.1683H48.35H48.3464ZM52.9374 20.2117H54.7906L53.864 13.4454L52.9374 20.2117Z" fill="#2DAFCF"/>
<path d="M65.5221 26.4255C64.4312 26.4255 63.5186 26.231 62.7843 25.8452C62.0501 25.4594 61.4976 24.8652 61.1235 24.0554C60.7494 23.2491 60.5431 22.2031 60.4976 20.9172L63.7949 20.4238C63.8089 21.1675 63.8787 21.7652 63.9977 22.2239C64.1165 22.6827 64.2914 23.0094 64.5151 23.2109C64.7389 23.4125 65.0081 23.5098 65.3228 23.5098C65.7249 23.5098 65.9872 23.3743 66.1096 23.1032C66.2319 22.8321 66.2913 22.5472 66.2913 22.2482C66.2913 21.5359 66.12 20.9311 65.7739 20.4377C65.4277 19.9442 64.9626 19.4507 64.3718 18.9502L62.8647 17.6436C62.204 17.0875 61.648 16.455 61.1934 15.7495C60.7424 15.044 60.5151 14.1683 60.5151 13.1256C60.5151 11.6556 60.9522 10.5297 61.8298 9.75119C62.7039 8.97272 63.8997 8.5835 65.4067 8.5835C66.3403 8.5835 67.092 8.73988 67.6585 9.05614C68.225 9.36891 68.6549 9.78246 68.9522 10.2864C69.2459 10.7938 69.4452 11.329 69.5536 11.8919C69.662 12.455 69.7214 12.9936 69.7354 13.508L66.4173 13.9146C66.4033 13.4002 66.3682 12.9554 66.3193 12.5766C66.2704 12.1978 66.1655 11.9058 66.0081 11.6974C65.8508 11.4889 65.606 11.388 65.2738 11.388C64.9137 11.388 64.6515 11.5375 64.4872 11.8363C64.3228 12.1352 64.2388 12.4376 64.2388 12.7365C64.2388 13.3793 64.3927 13.9041 64.704 14.3107C65.0116 14.7174 65.4172 15.1414 65.9207 15.5861L67.3648 16.8511C68.127 17.4941 68.7669 18.2239 69.2949 19.0371C69.8193 19.8504 70.0816 20.8582 70.0816 22.0572C70.0816 22.8704 69.8963 23.6106 69.5222 24.2744C69.148 24.9381 68.62 25.4629 67.9382 25.8487C67.2564 26.2345 66.4487 26.429 65.5151 26.429L65.5221 26.4255Z" fill="#2DAFCF"/>
<path d="M80.9052 29.5707C80.5906 29.4282 80.2094 29.1954 79.7619 28.8756C79.3178 28.5559 78.8737 28.1771 78.4367 27.7392C77.9996 27.3013 77.629 26.8565 77.3283 26.4012C77.2724 26.4151 77.2129 26.422 77.157 26.422H76.9612C75.6535 26.422 74.6185 26.1927 73.8598 25.7375C73.0975 25.2787 72.5521 24.6254 72.2234 23.767C71.8912 22.9086 71.7269 21.8903 71.7269 20.7052V14.2586C71.7269 13.0596 71.8912 12.0379 72.2234 11.1969C72.5521 10.3559 73.0975 9.70948 73.8598 9.2577C74.622 8.80592 75.657 8.5835 76.9612 8.5835C78.2654 8.5835 79.3283 8.80939 80.0976 9.2577C80.8668 9.70601 81.4157 10.3524 81.7444 11.1969C82.0766 12.0379 82.2409 13.0596 82.2409 14.2586V20.7052C82.2409 21.5184 82.164 22.2552 82.0136 22.912C81.8633 23.5689 81.6185 24.1423 81.2793 24.6254C80.9402 25.1084 80.4926 25.4942 79.9332 25.7827C80.122 25.9842 80.3144 26.1788 80.5171 26.3699C80.7164 26.5611 80.9192 26.7418 81.122 26.9051C81.3213 27.0685 81.5241 27.2006 81.7234 27.3013L80.9052 29.5707ZM76.9612 23.7044C77.3633 23.7044 77.657 23.6036 77.8458 23.4055C78.0311 23.2074 78.1535 22.9503 78.213 22.634C78.2688 22.3213 78.2968 21.998 78.2968 21.6714V13.3203C78.2968 12.9763 78.2688 12.653 78.213 12.3472C78.157 12.0414 78.0311 11.7877 77.8458 11.5861C77.6605 11.388 77.3633 11.2873 76.9612 11.2873C76.5591 11.2873 76.2689 11.388 76.087 11.5861C75.9087 11.7877 75.7933 12.0414 75.7409 12.3472C75.6919 12.653 75.664 12.9797 75.664 13.3203V21.6714C75.664 22.0015 75.6884 22.3213 75.7409 22.634C75.7899 22.9468 75.9052 23.2074 76.087 23.4055C76.2654 23.6071 76.5591 23.7044 76.9612 23.7044Z" fill="#2DAFCF"/>
<path d="M89.6331 26.4255C88.2974 26.4255 87.252 26.2066 86.4968 25.7722C85.7415 25.3343 85.2136 24.7018 84.9128 23.8642C84.6122 23.0302 84.4618 22.005 84.4618 20.7921V8.81976H88.2765V21.369C88.2765 21.7269 88.3045 22.0814 88.3604 22.4393C88.4163 22.7973 88.5422 23.0892 88.738 23.3186C88.9303 23.548 89.231 23.6626 89.6331 23.6626C90.0352 23.6626 90.3499 23.548 90.5387 23.3186C90.7276 23.0892 90.8429 22.7973 90.8953 22.4393C90.9478 22.0814 90.9722 21.7269 90.9722 21.369V8.81976H94.808V20.7921C94.808 22.005 94.6541 23.0302 94.3464 23.8642C94.0387 24.6983 93.5108 25.3343 92.7624 25.7722C92.0142 26.2066 90.9722 26.4255 89.6366 26.4255H89.6331Z" fill="#2DAFCF"/>
<path d="M97.258 26.1683V8.81976H105.1V11.4332H101.114V15.739H104.153V18.3942H101.114V23.5758H105.142V26.1683H97.2542H97.258Z" fill="#2DAFCF"/>
<path d="M108.464 26.1683V11.6695H105.835V8.81976H114.95V11.6695H112.342V26.1683H108.464Z" fill="#2DAFCF"/>
<path d="M116.179 26.1684V22.8704H119.497V26.1684H116.179Z" fill="#2DAFCF"/>
<path d="M121.759 26.1683V8.81976H125.616V26.1683H121.759Z" fill="#2DAFCF"/>
<path d="M128.22 26.1683V8.81976H132.636C134.157 8.81976 135.343 9.00742 136.193 9.38623C137.039 9.76504 137.637 10.3593 137.983 11.1655C138.329 11.9719 138.5 13.0179 138.5 14.3037V20.601C138.5 21.9007 138.326 22.9606 137.983 23.7808C137.637 24.601 137.046 25.2057 136.206 25.5914C135.368 25.9772 134.193 26.1683 132.686 26.1683H128.224H128.22ZM132.081 23.5133H132.686C133.273 23.5133 133.7 23.4263 133.955 23.2561C134.213 23.0858 134.374 22.8286 134.441 22.4845C134.504 22.1405 134.539 21.713 134.539 21.1987V13.64C134.539 13.1256 134.497 12.7121 134.42 12.3993C134.343 12.0865 134.172 11.8571 133.913 11.7147C133.654 11.5722 133.238 11.4992 132.661 11.4992H132.081V23.5133Z" fill="#2DAFCF"/>
<path d="M12.9439 14.3559C12.9122 14.3559 12.8911 14.3559 12.8594 14.3664V14.3559H12.9439Z" fill="#2DAFCF"/>
<path d="M15.0643 14.3559V14.3664C15.0326 14.3559 15.0009 14.3559 14.9692 14.3559H15.0643Z" fill="#2DAFCF"/>
<path d="M1.85761 31.0753C1.84704 31.0963 1.84704 31.1068 1.84704 31.1278C1.83649 31.1068 1.83649 31.0963 1.83649 31.0858C1.83649 31.0858 1.84353 31.0823 1.85761 31.0753Z" fill="#2DAFCF"/>
<path d="M26.0733 31.1278C26.0733 31.1278 26.0627 31.1068 26.0627 31.0963H26.0733V31.1278Z" fill="#2DAFCF"/>
<path d="M12.8594 14.3559V14.3767C12.8594 14.3767 12.8804 14.3663 12.8909 14.3663C12.9118 14.3559 12.9224 14.3559 12.9433 14.3559H12.8594ZM14.9958 14.3559C14.9958 14.3559 15.0167 14.3559 15.0272 14.3663C15.0377 14.3663 15.0482 14.3663 15.0587 14.3767V14.3559H14.9958Z" fill="#2DAFCF"/>
<path d="M26.0733 31.1278C26.0733 31.1278 26.0627 31.1068 26.0627 31.0963H26.0733V31.1278Z" fill="#2DAFCF"/>
<path d="M1.84704 31.1278C1.83649 31.1068 1.83649 31.0963 1.83649 31.0858C1.83649 31.0858 1.84353 31.0823 1.85761 31.0753C1.84704 31.0963 1.84704 31.1068 1.84704 31.1278Z" fill="#2DAFCF"/>
<path d="M26.0733 31.1278C26.0733 31.1278 26.0627 31.1068 26.0627 31.0963H26.0733V31.1278Z" fill="#2DAFCF"/>
<path d="M1.85761 31.0753C1.84704 31.0963 1.84704 31.1068 1.84704 31.1278C1.83649 31.1068 1.83649 31.0963 1.83649 31.0858C1.83649 31.0858 1.84353 31.0823 1.85761 31.0753Z" fill="#2DAFCF"/>
<path d="M18.3086 0.5C18.3086 2.43921 16.7316 4.01698 14.7806 4.01698C12.8296 4.01698 11.2526 2.43921 11.2526 0.5H1.95544V24.323C2.64775 21.9945 4.02887 19.9546 5.84355 18.4151C6.66873 19.1449 7.32956 20.0449 7.76313 21.0598H7.75264C5.3995 22.1266 3.42048 23.7879 1.95544 25.8278V30.7488C2.91349 27.4786 5.21419 24.7609 8.3016 23.2109C8.31209 23.4368 8.33306 23.6523 8.33306 23.8678C8.33306 27.5585 5.54635 30.6167 1.95544 31.065V33.2788C2.17223 33.2475 2.37851 33.2162 2.61628 33.1746C7.0953 32.417 10.5289 28.5281 10.5289 23.8643C10.5289 23.3708 10.4869 22.8599 10.4169 22.3769C11.2211 22.1301 12.0254 21.9876 12.8611 21.9146V33.2788H15.0603V21.9146C15.875 21.9876 16.6792 22.1197 17.466 22.3456V22.3664C17.382 22.8495 17.333 23.3604 17.333 23.8643C17.333 28.5524 20.8016 32.4586 25.319 33.185C25.5254 33.2267 25.7422 33.2579 25.9694 33.2788V31.0754C22.3365 30.6341 19.5324 27.5689 19.5324 23.8678C19.5324 23.6419 19.5428 23.416 19.5743 23.19C21.1233 23.9581 22.4729 25.0146 23.5673 26.297C24.6618 27.5793 25.4764 29.0876 25.973 30.7384V25.8174C24.4974 23.767 22.5044 22.1162 20.1338 21.0284C20.5568 20.0032 21.2177 19.0997 22.0639 18.3942C23.8785 19.9337 25.2736 21.9841 25.973 24.3126V0.5H18.3156H18.3086ZM12.8611 19.7391C11.8296 19.8121 10.8086 19.9963 9.81558 20.2708C9.30859 19.0823 8.5988 18.0154 7.67922 17.1223C9.22817 16.2291 10.9904 15.6557 12.8575 15.5028V19.7391H12.8611ZM12.8925 14.3663C12.8925 14.3663 12.8715 14.3663 12.8611 14.3767V14.3559H12.9449C12.924 14.3559 12.9135 14.3559 12.8925 14.3663ZM15.0289 14.3663C15.0289 14.3663 15.0079 14.3559 14.9974 14.3559H15.0603V14.3767C15.0603 14.3767 15.0394 14.3663 15.0289 14.3663ZM18.0603 20.2708C17.0813 19.972 16.0778 19.8086 15.0569 19.7391V15.5028C16.924 15.6557 18.6582 16.2326 20.1967 17.1014C19.2771 17.9945 18.5568 19.0823 18.0603 20.2708Z" fill="#2DAFCF"/>
<path d="M12.9439 14.3559C12.9122 14.3559 12.8911 14.3559 12.8594 14.3664V14.3559H12.9439Z" fill="#2DAFCF"/>
<path d="M15.0643 14.3559V14.3664C15.0326 14.3559 15.0009 14.3559 14.9692 14.3559H15.0643Z" fill="#2DAFCF"/>
<path d="M22.0534 18.3941C23.868 19.9336 25.2632 21.984 25.9624 24.3125V8.57993H1.95544V24.3229C2.64775 21.9945 4.02887 19.9545 5.84355 18.415C6.66873 19.1448 7.32956 20.0449 7.76313 21.0597H7.75264C5.3995 22.1265 3.42048 23.7877 1.95544 25.8277V30.7487C2.91349 27.4785 5.21419 24.7608 8.3016 23.2108C8.31209 23.4367 8.33306 23.6522 8.33306 23.8676C8.33306 27.5584 5.54635 30.6167 1.95544 31.0649V33.2787C2.17223 33.2474 2.37851 33.2161 2.61628 33.1744C7.0953 32.4168 10.5289 28.528 10.5289 23.8642C10.5289 23.3707 10.4869 22.8598 10.4169 22.3768C11.2211 22.13 12.0254 21.9875 12.8611 21.9145V33.2787H15.0603V21.9145C15.875 21.9875 16.6792 22.1196 17.466 22.3455V22.3663C17.382 22.8494 17.333 23.3603 17.333 23.8642C17.333 28.5523 20.8016 32.4585 25.319 33.1849C25.5254 33.2266 25.7422 33.2578 25.9694 33.2787V31.0753C22.3365 30.6341 19.5324 27.5688 19.5324 23.8676C19.5324 23.6417 19.5428 23.4158 19.5743 23.1899C21.1233 23.958 22.4729 25.0145 23.5673 26.2969C24.6618 27.5792 25.4764 29.0875 25.973 30.7383V25.8173C24.4974 23.7669 22.5044 22.1161 20.1338 21.0284C20.5568 20.0031 21.2177 19.0996 22.0639 18.3941H22.0534ZM12.8611 19.739C11.8296 19.8121 10.8086 19.9962 9.81558 20.2707C9.30859 19.0822 8.5988 18.0153 7.67922 17.1222C9.22817 16.229 10.9904 15.6556 12.8575 15.5027V19.739H12.8611ZM18.0603 20.2707C17.0813 19.9718 16.0778 19.8086 15.0569 19.739V15.5027C16.924 15.6556 18.6582 16.2325 20.1967 17.1013C19.2771 17.9944 18.5568 19.0822 18.0603 20.2707Z" fill="#2DAFCF"/>
</g>
</g>
<defs>
<clipPath id="clip0_17_3828">
<rect width="138" height="35" fill="white" transform="translate(0.5 0.5)"/>
</clipPath>
</defs>
</svg>
